<?xml version="1.0" encoding="utf-8"?>
<!DOCTYPE svg PUBLIC "-//W3C//DTD SVG 1.0//EN" "http://www.w3.org/TR/2001/REC-SVG-20010904/DTD/svg10.dtd">
<svg version="1.0" xmlns="http://www.w3.org/2000/svg" width="330px" height="114px" viewBox="0 0 330 114" preserveAspectRatio="xMidYMid meet">
 <g fill="#ffffff">
  <path d="M122.9 73.5 c-4.4 -2.4 -6.1 -9.8 -3.8 -16.3 3 -8.6 16.3 -8.4 18.5 0.3 1.2 4.8 0.1 5.5 -8.1 5.5 -7.3 0 -7.5 0.1 -7.5 2.5 0 1.4 1 3.5 2.1 4.6 2 2 5 2.2 10.8 0.8 2.9 -0.8 2 1.9 -1 3 -4.2 1.5 -7.8 1.3 -11 -0.4z m11.1 -15.6 c0 -1.9 -3.5 -4.9 -5.8 -4.9 -1.5 0 -6.2 4.4 -6.2 5.9 0 1.1 4.2 1.7 8.8 1.2 2.3 -0.2 3.2 -0.8 3.2 -2.2z"/>
  <path d="M145.4 74 c-2.6 -1 -3.8 -5.3 -2.4 -8 1.5 -2.7 6.2 -5 10.5 -5 3.5 0 3.6 -0.1 3.3 -3.2 -0.3 -3.3 -0.4 -3.3 -5.8 -3.4 -7.6 -0.2 -7.8 -0.3 -5 -1.9 3.8 -2.2 10.6 -1.9 13 0.5 1.7 1.7 2 3.3 2 11.5 0 7.5 -0.3 9.5 -1.4 9.5 -0.8 0 -1.6 -0.5 -1.8 -1.2 -0.3 -0.9 -1.4 -0.7 -4 0.5 -4 1.9 -5.3 2 -8.4 0.7z m9.4 -3.6 c1.5 -1 2.2 -2.5 2.2 -4.6 0 -3 -0.1 -3 -3.6 -2.5 -3.8 0.6 -7.4 3.2 -7.4 5.2 0 3.4 5.1 4.6 8.8 1.9z"/>
  <path d="M183.1 73.1 c-1.8 -1.8 -2.1 -3.4 -2.1 -10.6 0 -6.9 -0.3 -8.5 -1.5 -8.5 -0.8 0 -1.5 -0.7 -1.5 -1.5 0 -0.8 0.7 -1.5 1.5 -1.5 0.9 0 1.5 -0.9 1.5 -2.3 0 -2.3 1.7 -4.7 3.2 -4.7 0.4 0 0.8 1.5 0.8 3.4 0 3.2 0.3 3.5 3.2 3.8 4.6 0.4 4.9 2.8 0.3 2.8 l-3.6 0 0.3 8.8 0.3 8.7 3.3 0 c2.4 0 3.2 0.4 3 1.5 -0.5 2.4 -6.3 2.5 -8.7 0.1z"/>
  <path d="M198 56.5 c0 -17 0.1 -18.5 1.8 -18.5 1.5 0 1.7 0.9 1.4 7.6 -0.4 7.7 -0.4 7.7 2 6.9 1.2 -0.4 4.1 -1 6.3 -1.2 6.1 -0.7 7.2 1.2 7.8 12.9 0.3 5.3 0.3 9.9 0 10.2 -0.3 0.2 -1.1 0.2 -1.9 -0.1 -1.1 -0.4 -1.4 -2.7 -1.4 -9.2 0 -5.4 -0.5 -9.2 -1.2 -9.9 -1.7 -1.7 -5.3 -1.5 -8.9 0.4 -2.3 1.2 -3 2.1 -2.9 4.2 0.6 8.1 -0.1 14 -1.5 14.6 -1.3 0.5 -1.5 -1.9 -1.5 -17.9z"/>
  <path d="M92 56.1 c0 -14.4 0.3 -18 1.4 -18.4 2.3 -0.9 2.6 0.2 2.6 8.1 0 6.7 0.2 7.3 1.8 6.6 3.4 -1.5 9.7 -1.6 11.7 0 1.7 1.2 2 2.8 2.3 11.5 0.4 9.7 0.3 10.1 -1.7 10.1 -2 0 -2.1 -0.5 -2.1 -9.5 0 -9.3 0 -9.5 -2.6 -10.1 -1.4 -0.4 -4 -0.2 -5.7 0.3 l-3.2 0.9 -0.3 9.2 c-0.2 8.4 -0.5 9.2 -2.2 9.2 -1.9 0 -2 -0.8 -2 -17.9z"/>
  <path d="M169 56 c0 -15.3 0.2 -18 1.5 -18 1.3 0 1.5 2.7 1.5 18 0 15.3 -0.2 18 -1.5 18 -1.3 0 -1.5 -2.7 -1.5 -18z"/>
  <path d="M51 41.5 c0 -4.5 0 -4.5 3.5 -4.5 3.3 0 3.5 -0.2 3.5 -3.5 0 -3.4 0.1 -3.5 4 -3.5 3.9 0 4 0.1 4 3.5 0 3.1 -0.3 3.5 -2.5 3.5 -2.3 0 -2.5 0.4 -2.5 4.5 l0 4.5 -5 0 -5 0 0 -4.5z"/>
 </g>
 <g fill="#f3fbff">
  <path d="M24.2 82.7 c-6 -6 -8.2 -8.9 -8.1 -10.7 0 -1.4 0.3 -1.9 0.6 -1.2 0.4 1 1 0.9 2.5 -0.4 1.5 -1.5 2.3 -1.6 3.8 -0.7 1.4 1 2.1 0.9 3.1 -0.3 1.1 -1.3 1.9 -0.8 6.1 3.3 4.9 4.8 6.2 8.3 3.1 8.3 -1.4 0 -1.2 0.4 0.7 2.5 2.2 2.3 2.2 2.6 0.7 4.3 -1 1 -1.4 2.2 -1 2.5 0.3 0.4 -0.2 0.7 -1.3 0.7 -1.1 0 -5.5 -3.6 -10.2 -8.3z"/>
  <path d="M50 43.5 c0 -1.8 -0.7 -2.6 -2.5 -3.1 -2.3 -0.6 -2.5 -1.1 -2.5 -6 0 -5.1 0.1 -5.4 2.5 -5.4 2 0 2.5 -0.5 2.5 -2.5 0 -2.4 0.3 -2.5 5.5 -2.5 5.2 0 5.5 0.1 5.5 2.5 0 2 0.5 2.5 2.5 2.5 2.4 0 2.5 0.3 2.5 5.5 0 4.9 -0.2 5.5 -2 5.5 -1.1 0 -2.3 0.7 -2.6 1.5 -0.4 0.8 -1.2 1.5 -2 1.5 -0.8 0 -1.4 -0.7 -1.4 -1.5 0 -0.8 -0.9 -1.5 -2 -1.5 -1.1 0 -2 0.7 -2 1.5 0 0.8 0.7 1.5 1.5 1.5 0.8 0 1.5 0.7 1.5 1.5 0 1 -1.1 1.5 -3.5 1.5 -3.1 0 -3.5 -0.3 -3.5 -2.5z"/>
 </g>
 <g fill="#f2f2f2">
  <path d="M216.3 71.3 c-1.5 -0.6 -1.7 -5.3 -0.3 -5.3 0.6 0 1.3 0.6 1.6 1.4 0.8 2.2 0.1 4.4 -1.3 3.9z"/>
  <path d="M189 52.4 c0 -0.9 0.5 -1.4 1.2 -1.2 1.8 0.6 2.1 2.8 0.4 2.8 -0.9 0 -1.6 -0.7 -1.6 -1.6z"/>
  <path d="M50 43 c0 -1.1 -0.7 -2 -1.5 -2 -1.1 0 -1.5 -1 -1.4 -3.7 0.1 -2.1 0.3 -3 0.6 -2 0.2 0.9 1.1 1.7 1.8 1.7 2 0 4.7 3 4.1 4.6 -0.3 0.9 0.2 1.4 1.4 1.4 1.1 0 2 0.5 2 1 0 0.6 -1.6 1 -3.5 1 -2.8 0 -3.5 -0.4 -3.5 -2z"/>
  <path d="M58.2 39.3 c0.2 -1 1.3 -1.9 2.6 -2.1 2.4 -0.4 2.9 -1.7 1 -2.5 -1 -0.4 -1 -0.6 0 -0.6 2.5 -0.2 1.1 -2.1 -1.5 -2.1 -2.2 0 -2.5 -0.2 -1.3 -1 0.8 -0.5 3 -1 4.8 -1 l3.3 0 -0.3 5.3 -0.3 5.2 -4.3 0.3 c-3.8 0.3 -4.3 0.1 -4 -1.5z"/>
 </g>
 <g fill="#98e6fd">
  <path d="M19.7 88.2 l-11.8 -11.8 3.6 -4 c3.5 -3.8 3.7 -3.8 5.1 -2 0.8 1.1 1.4 1.6 1.4 1.1 0 -0.5 4 3.1 9 8 4.9 4.9 8.7 9.1 8.5 9.4 -0.3 0.2 0.1 1.1 0.9 2 1.3 1.4 1 2.1 -1.7 5.4 l-3.2 3.7 -11.8 -11.8z"/>
 </g>
 <g fill="#fed2a5">
  <path d="M29.4 75.9 l-4.7 -4.7 2.3 -3.1 c3.2 -4.6 13 -9.1 15.4 -7.2 2 1.5 7 2.5 11.5 2.2 3.6 -0.3 4.8 0.1 6 1.8 l1.7 2.2 9.2 -5.1 c8 -4.3 14.1 -6.5 11.9 -4.3 -0.4 0.3 -0.2 1.1 0.3 1.8 0.7 0.8 -2 3.5 -9.4 9.3 -14.9 11.5 -13.5 10.9 -27.3 11.4 l-12.2 0.5 -4.7 -4.8z"/>
 </g>
 <g fill="#fe8087">
  <path d="M45.2 42.7 c-9.8 -10 -10.2 -10.6 -10.2 -14.8 0 -5.3 2.1 -8.6 6.5 -10.5 2.9 -1.2 3.7 -1.1 6.7 0.3 1.8 0.9 3.9 2.3 4.6 3 1.9 1.8 3.2 1.6 5.7 -0.7 2.9 -2.7 8.9 -3.7 12.1 -1.9 1.4 0.7 3.4 2.9 4.4 4.8 2.8 5.6 0.7 9.9 -10.3 20.9 l-9.3 9.2 -10.2 -10.3z m13 -2.4 c0.2 -2.2 0.8 -2.8 2.8 -2.8 2 0 2.5 -0.5 2.5 -2.5 0 -2 -0.6 -2.6 -2.7 -2.8 -2.2 -0.3 -2.8 -0.9 -2.8 -2.8 0 -1.9 -0.5 -2.4 -2.5 -2.4 -2 0 -2.5 0.5 -2.5 2.5 0 2 -0.5 2.5 -2.5 2.5 -2 0 -2.5 0.5 -2.5 2.5 0 1.8 0.7 2.6 2.5 3.1 1.8 0.4 2.5 1.3 2.5 3 0 1.9 0.5 2.4 2.4 2.4 1.9 0 2.5 -0.6 2.8 -2.7z"/>
 </g>
 <g fill="#ee7474">
  <path d="M226.5 71.6 c-3.8 -4.1 -5 -9 -3.5 -14.7 1.7 -6.2 5.2 -8.9 11.4 -8.9 2.8 0 5.7 0.4 6.5 0.9 2.1 1.3 -0.4 2.3 -4.2 1.6 -2.7 -0.5 -4 -0.2 -6.5 2 -2.9 2.5 -3.2 3.2 -3.2 8.6 0 5.1 0.4 6.4 2.6 8.6 2.2 2.2 3.2 2.5 7.5 2.1 5.3 -0.5 6.5 0.6 2.3 2.2 -5.3 2 -9.4 1.2 -12.9 -2.4z"/>
  <path d="M249 73 c-3 -3 -2.6 -7.3 1.1 -10.4 1.7 -1.4 4.1 -2.6 5.4 -2.6 1.2 0 3.7 -0.3 5.4 -0.6 2.6 -0.5 3.1 -1.1 3.1 -3.4 0 -1.5 -0.7 -3.3 -1.5 -4 -1.9 -1.5 -7.7 -1.5 -10.5 0 -1.5 0.8 -2 0.8 -2 -0.3 0 -3.8 12.6 -5.1 16 -1.7 1.7 1.7 2 3.3 2 12.1 0 10.1 0 10.1 -2.3 9.5 -1.4 -0.3 -3.8 0.2 -6 1.4 -4.7 2.5 -8.2 2.5 -10.7 0z m12.5 -2.6 c1.9 -1.2 2.5 -2.5 2.5 -5 0 -3.3 -0.1 -3.4 -3.9 -3.4 -6.4 0 -11.3 5.4 -7.9 8.8 1.7 1.7 6.4 1.5 9.3 -0.4z"/>
  <path d="M298.8 72.1 c-2.8 -2.5 -3.2 -3.5 -3.6 -9.3 -0.6 -9.8 1.9 -13.7 9.6 -15.1 6.8 -1.3 12.9 4 12 10.5 -0.3 2.2 -0.8 2.3 -9.3 2.8 -8.9 0.5 -9 0.5 -8.7 3 0.9 6.4 5.3 9 12.2 7.2 5.2 -1.3 6.3 0.4 1.6 2.3 -5.6 2.4 -10.1 1.9 -13.8 -1.4z m9.7 -14.1 l5.4 0 -1.1 -3.1 c-1.9 -5.5 -9.2 -6.3 -12.4 -1.4 -1.9 2.9 -1.2 6 1.2 5.1 0.9 -0.3 4 -0.6 6.9 -0.6z"/>
  <path d="M278 61 c0 -12.1 0.9 -16 2.5 -11 0.3 1.1 1.1 2 1.7 2 0.5 0 2.1 -0.9 3.5 -2 3.1 -2.4 5.6 -2.6 5.1 -0.3 -0.2 0.9 -1.7 2.1 -3.5 2.7 -1.8 0.6 -3.6 1.6 -4.2 2.1 -0.5 0.6 -1.1 5.2 -1.3 10.2 -0.3 8.1 -0.5 9.3 -2 9.3 -1.6 0 -1.8 -1.3 -1.8 -13z"/>
  <path d="M48.2 45.7 c-1.8 -1.8 -3.2 -4.1 -3.2 -5.1 0 -1.6 0.3 -1.6 3 0.4 1.6 1.1 3.9 3.4 5 5 2 2.8 2 3 0.3 3 -1.1 0 -3.3 -1.5 -5.1 -3.3z"/>
 </g>
 <g fill="#fc646f">
  <path d="M45.2 42.7 c-5.6 -5.8 -10.4 -11.5 -10.7 -13 -0.9 -3.4 1 -8.2 4.3 -10.7 3.7 -3 4.7 -2.4 1.8 1.1 -2.8 3.2 -3.2 6.2 -1.6 10.3 1.2 3.2 15.8 18.6 17.6 18.6 1.8 0 1.8 1.4 0.1 2.9 -1.1 0.8 -3.6 -1.2 -11.5 -9.2z"/>
 </g>
</svg>